# xmcd
#
# Track frame offsets:
#   150
#   15199
#   27678
#   39533
#   50308
#   63706
#   75067
#   87723
#   106193
#   117070
#   138542
#   158384
#   172232
#   190144
#   206907
#   221103
#   240624
#   253347
#   265916
#   277789
#   291337
#   306365
#
# Disc length: 4276 seconds
#
# Revision: 0
# Processed by: cddbd v1.5PL3 Copyright (c) Steve Scherf et al.
# Submitted via: Media_Universe 3.0
#
DISCID=4010b216
DTITLE=Gary Allen - Used Heart For Sale and Smoke Rings In The Dark
DYEAR=1900
DGENRE=Country
TTITLE0=Send Back My Heart
TTITLE1=Her Man
TTITLE2=Forever And A Day
TTITLE3=Livin' In A House Full Of Love
TTITLE4=All I Had Going Is Gone
TTITLE5=Used Heart For Sale
TTITLE6=Of All The Hearts
TTITLE7=From Where I'm Sitting
TTITLE8=Wine Me Up
TTITLE9=Wake Up Screaming
TTITLE10=Smoke Rings In The Dark
TTITLE11=Right Where I Need To Be
TTITLE12=Don't Tell Mama
TTITLE13=Lovin' You Against My Will
TTITLE14=Sorry
TTITLE15=Cryin' For Nothin'
TTITLE16=Bourbon Borderline
TTITLE17=Runaway
TTITLE18=Learning To Live With Me
TTITLE19=Cowboy Blues
TTITLE20=I'm The One
TTITLE21=Greenfields
EXTD=
EXTT0=
EXTT1=
EXTT2=
EXTT3=
EXTT4=
EXTT5=
EXTT6=
EXTT7=
EXTT8=
EXTT9=
EXTT10=
EXTT11=
EXTT12=
EXTT13=
EXTT14=
EXTT15=
EXTT16=
EXTT17=
EXTT18=
EXTT19=
EXTT20=
EXTT21=
PLAYORDER=
